<svg version="1.1" id="Layer_1" xmlns="http://www.w3.org/2000/svg" xmlns:xlink="http://www.w3.org/1999/xlink" x="0px" y="0px"
	 width="100%" viewBox="0 0 480 464" enable-background="new 0 0 480 464" xml:space="preserve">
<path fill="#000000" opacity="1.000000" stroke="none" 
	d="
M302.468658,465.000000 
	C310.730133,461.854187 319.633118,459.116058 328.163422,455.499023 
	C405.824402,422.568939 454.044495,364.493805 471.090729,282.278290 
	C481.732422,230.952560 474.661957,180.535172 449.588806,134.024033 
	C413.182434,66.489639 356.917084,25.044542 280.943268,12.387462 
	C218.692795,2.016663 160.494919,13.893163 108.550758,50.411701 
	C58.487656,85.607803 26.956282,133.709290 13.708901,193.564529 
	C9.184401,214.007446 7.915572,234.852646 9.541389,255.610275 
	C13.562879,306.954651 32.376404,352.445038 66.194870,391.430450 
	C96.124718,425.933136 133.500137,449.053619 176.943756,462.644714 
	C178.519516,463.137665 180.041702,463.801971 181.794434,464.693176 
	C121.681580,465.000000 61.363152,465.000000 1.022364,465.000000 
	C1.022364,310.386475 1.022364,155.772934 1.022364,1.079697 
	C160.907288,1.079697 320.814636,1.079697 480.860992,1.079697 
	C480.860992,155.666580 480.860992,310.333282 480.860992,465.000000 
	C421.574310,465.000000 362.255798,465.000000 302.468658,465.000000 
z"/>
<path fill="#000000" opacity="1.000000" stroke="none" 
	d="
M196.466858,465.000000 
	C203.255630,453.649597 210.991028,442.605194 216.753326,430.338867 
	C226.324539,409.964417 233.254227,388.675171 234.355072,366.236511 
	C235.567780,341.517883 226.319275,323.923401 197.476913,315.354645 
	C181.428482,310.586823 165.342133,310.757690 149.231400,315.032684 
	C140.086746,317.459229 131.101410,320.539978 121.420006,320.384552 
	C113.130211,320.251434 105.347740,318.035248 97.588692,315.500549 
	C95.673943,314.875061 94.062233,314.009979 94.764870,311.645599 
	C95.564774,308.953949 97.580803,309.969788 99.288361,310.454193 
	C111.742035,313.987061 124.117737,314.948395 136.329987,309.469299 
	C137.392914,308.992432 138.539047,308.675903 139.548035,308.109406 
	C141.363068,307.090393 144.172211,306.688141 144.080872,304.075256 
	C143.999741,301.754181 141.254425,301.582245 139.621613,300.579224 
	C137.495514,299.273163 134.860764,298.546143 133.152008,296.855316 
	C127.526573,291.289062 120.327141,290.987152 113.236153,290.405884 
	C104.611076,289.698914 96.020142,288.868347 87.696152,286.384766 
	C84.296478,285.370483 81.877960,285.517029 81.100441,289.724091 
	C80.790543,291.400879 80.191597,293.757416 77.651962,293.001373 
	C75.168274,292.261963 75.974800,290.153717 76.471466,288.382050 
	C77.517838,284.649475 76.020912,282.571075 72.514435,281.047028 
	C55.016556,273.441772 41.365547,260.796478 28.478729,247.143585 
	C25.569490,244.061386 27.257130,242.154327 29.538839,240.121933 
	C41.408943,229.548782 54.130825,220.201309 68.503563,213.267334 
	C75.076134,210.096481 75.181076,209.902847 73.990845,202.560104 
	C73.673866,200.604630 73.750206,198.579727 73.718575,196.585556 
	C73.696365,195.186127 73.908150,193.879288 75.739853,193.736465 
	C77.424461,193.605103 78.116074,194.465454 78.329109,196.042648 
	C78.617630,198.178680 79.054657,200.294174 79.391212,202.424301 
	C79.947845,205.947342 81.834534,207.340759 85.370010,206.315231 
	C90.639847,204.786591 95.951996,203.397812 101.192909,201.777344 
	C105.666862,200.394028 106.298462,198.650894 104.056931,194.340988 
	C100.983078,188.430710 97.797112,182.578735 94.720901,176.669662 
	C91.544510,170.568161 90.027588,169.968918 83.658142,172.375656 
	C81.778519,173.085892 79.515366,174.999420 78.265068,171.742783 
	C77.171783,168.895111 80.060745,168.718201 81.542274,167.668442 
	C82.079491,167.287796 82.697372,166.965393 83.326607,166.778992 
	C88.295197,165.307114 89.026825,162.237381 87.315826,157.648041 
	C81.892776,143.101929 79.118980,127.896996 76.288071,112.693047 
	C75.553108,108.745743 76.497200,107.703178 80.304039,107.580963 
	C99.608429,106.961174 118.903633,106.345467 137.980576,110.276123 
	C140.187729,110.730888 141.480347,109.870392 142.692978,108.369194 
	C143.843933,106.944321 144.936569,105.470596 146.125046,104.078278 
	C147.215378,102.800964 148.648911,102.260406 150.104919,103.285324 
	C151.843750,104.509338 150.967575,105.986183 149.973312,107.153435 
	C146.742752,110.946053 148.481796,112.868454 152.365097,114.379005 
	C162.026871,118.137337 170.960083,123.330994 179.842133,128.612961 
	C184.912994,131.628494 186.471802,130.950714 187.419266,125.150383 
	C187.766083,123.027229 187.559494,120.818405 187.833054,118.677765 
	C189.228806,107.755974 188.814590,107.013206 178.325363,103.176125 
	C176.297409,102.434288 174.202957,101.874664 172.140625,101.226387 
	C170.763260,100.793434 169.623962,100.090225 169.971252,98.413528 
	C170.351379,96.578308 171.634613,96.212204 173.375687,96.420494 
	C177.249084,96.883865 180.751770,98.497818 184.270325,99.951485 
	C188.641434,101.757370 191.136749,100.580505 192.622116,96.101990 
	C194.401871,90.735931 196.334000,85.397552 198.605576,80.225250 
	C200.204407,76.584770 199.300537,74.485458 195.725006,73.340775 
	C193.197998,72.531769 190.606171,71.927063 188.051498,71.202118 
	C186.285400,70.700951 184.916885,69.896866 185.691269,67.674446 
	C186.377884,65.703842 187.782684,65.923096 189.352264,66.399689 
	C192.375565,67.317703 195.477753,68.009750 198.437180,69.095428 
	C201.789230,70.325142 204.113937,69.556839 206.081970,66.545372 
	C214.822342,53.170956 225.949951,41.995056 238.102341,31.720213 
	C241.304932,29.012411 243.478348,29.099840 246.644379,31.794588 
	C259.016510,42.324997 270.355164,53.771564 279.376953,67.343079 
	C281.059082,69.873543 282.903717,70.548569 285.663940,69.666748 
	C289.145294,68.554573 292.661865,67.551277 296.172485,66.532837 
	C297.929535,66.023109 300.064026,65.168709 300.805450,67.660561 
	C301.665985,70.552711 298.998535,70.709763 297.209564,71.306419 
	C295.002319,72.042572 292.717041,72.545860 290.513275,73.291084 
	C285.565704,74.964165 284.727966,76.688728 286.504913,81.506165 
	C288.348267,86.503502 290.511932,91.397919 292.074432,96.479118 
	C293.491425,101.087090 296.213409,101.528656 300.131805,100.084610 
	C303.406799,98.877670 306.700897,97.689392 310.059753,96.756561 
	C311.860199,96.256531 314.278931,95.340141 314.958405,98.298607 
	C315.572632,100.973076 313.176361,101.031082 311.522644,101.583740 
	C307.418304,102.955391 303.273895,104.203812 299.459900,106.329880 
	C296.340149,108.068939 294.988495,110.245018 295.867981,114.100121 
	C296.821838,118.281036 297.001587,122.653923 297.326752,126.957611 
	C297.551910,129.937958 298.947235,131.848694 301.737762,130.270065 
	C313.304199,123.726761 324.957367,117.375557 337.097809,112.516220 
	C337.206390,109.878716 335.842560,108.547470 334.816101,107.072090 
	C333.985199,105.877708 333.471863,104.668228 334.760803,103.522507 
	C336.209351,102.234909 337.883057,102.658707 338.618103,104.078804 
	C344.050934,114.574829 352.682617,108.769394 360.090607,108.231613 
	C374.548126,107.182091 388.988800,106.242523 403.481506,107.228622 
	C405.105225,107.339096 406.704163,107.813522 408.718567,108.195839 
	C408.419159,116.214661 406.425598,123.736588 404.968018,131.312317 
	C403.144318,140.790802 400.577301,150.108246 397.255127,159.168762 
	C395.839691,163.028961 396.635620,164.937256 400.539368,166.259674 
	C403.035583,167.105270 407.806152,167.349289 406.337708,171.277328 
	C404.641052,175.815765 401.238678,171.549713 398.795441,170.951553 
	C395.646332,170.180573 393.505463,169.971390 391.855560,173.401993 
	C388.247986,180.903320 384.432739,188.309692 380.515045,195.654968 
	C378.471191,199.487030 379.465546,201.461731 383.575958,202.434982 
	C388.584717,203.620972 393.560791,204.956451 398.518250,206.344208 
	C402.345551,207.415588 404.689056,206.623016 404.888062,202.152557 
	C404.983551,200.007736 405.494934,197.882690 405.791779,195.745056 
	C405.985657,194.348694 406.796814,193.730438 408.162140,193.720428 
	C409.649445,193.709534 410.262421,194.564072 410.258331,195.919449 
	C410.250305,198.583298 410.749176,201.412766 410.024658,203.875519 
	C408.600494,208.716553 410.820618,210.893188 414.812256,212.618668 
	C429.654510,219.034485 442.527039,228.413666 454.615112,239.033127 
	C458.149506,242.138107 458.928070,244.178894 455.300842,248.127899 
	C442.651215,261.899597 428.766602,273.874847 411.343811,281.203369 
	C408.298706,282.484222 406.488464,284.029663 408.041656,287.585876 
	C408.356628,288.307007 408.292511,289.227081 408.274719,290.052673 
	C408.245911,291.391724 408.248688,292.871185 406.417114,293.055176 
	C404.725372,293.225128 403.890442,292.078979 403.826355,290.647888 
	C403.562439,284.754150 400.279419,285.128113 395.992188,286.422333 
	C385.579865,289.565704 374.736176,290.161957 363.999329,291.241119 
	C360.556061,291.587219 357.455627,292.238770 354.807281,294.519196 
	C350.423126,298.294159 344.340393,299.614166 339.998749,304.611542 
	C345.483154,309.535370 352.155060,310.848907 358.602478,312.605896 
	C366.300018,314.703552 373.781952,312.673462 381.281708,311.243805 
	C382.913727,310.932678 384.525177,310.506561 386.136322,310.095123 
	C387.832153,309.662018 389.163330,310.081543 389.745148,311.806244 
	C390.409637,313.776093 388.944153,314.549927 387.509216,315.057495 
	C374.789673,319.556580 361.814148,322.709290 348.463379,318.475067 
	C332.736755,313.487305 316.770386,310.199799 300.329224,312.400085 
	C272.486328,316.126190 255.676193,328.293488 251.909714,353.889893 
	C249.880463,367.680298 252.687622,381.033295 255.847061,394.322327 
	C261.944000,419.967041 273.546082,443.029694 288.942627,464.660278 
	C283.977905,465.000000 278.955811,465.000000 273.414185,464.640442 
	C272.110321,462.642914 271.433380,460.942657 270.525116,459.376556 
	C260.630463,442.314697 252.705933,424.423187 248.113770,405.191833 
	C246.057968,396.582489 244.509140,387.852081 242.591492,378.499939 
	C239.312271,399.495148 234.354675,419.209320 225.989410,438.025360 
	C221.858887,447.316193 216.178925,455.760254 212.000000,465.000000 
	C206.977905,465.000000 201.955811,465.000000 196.466858,465.000000 
M332.957825,297.459381 
	C340.364532,294.758728 347.127167,290.896790 353.553864,286.349182 
	C357.091980,283.845581 357.271698,281.225067 354.691498,278.015137 
	C351.652252,274.234161 348.206604,270.847687 344.551178,267.689331 
	C326.630157,252.205353 294.444763,249.834732 276.502167,274.466187 
	C275.459991,275.896912 273.672363,277.396240 274.919281,279.298096 
	C276.357056,281.491119 278.466858,280.325256 280.316772,279.590363 
	C287.119446,276.887848 293.840363,273.955963 300.735352,271.515289 
	C309.015076,268.584503 317.430267,268.886902 325.680206,271.825348 
	C328.384399,272.788544 331.376129,273.816864 331.412354,277.499756 
	C330.885651,277.865295 330.632385,278.182617 330.349274,278.211884 
	C329.362152,278.313965 328.362762,278.378754 327.371521,278.347504 
	C306.723297,277.696259 288.250824,284.825897 270.470917,294.334320 
	C263.080048,298.286804 261.202881,305.798035 258.268738,312.655151 
	C259.787689,313.437012 260.531952,312.965912 261.229492,312.575684 
	C276.160858,304.221954 292.205750,300.847687 309.234192,301.640045 
	C317.156464,302.008698 324.738403,300.101105 332.957825,297.459381 
M135.243576,272.739899 
	C134.682541,273.355316 134.100891,273.953308 133.563599,274.588806 
	C126.843414,282.537384 127.087158,284.067657 135.892258,289.666260 
	C148.575287,297.730621 162.377151,302.046600 177.455032,301.628021 
	C194.321716,301.159790 210.147308,304.623047 224.727753,313.290131 
	C225.280624,313.618744 225.904968,314.017975 226.848801,312.874573 
	C223.678955,307.191956 222.662323,299.709259 216.550812,295.890900 
	C199.194031,285.046844 180.280365,278.768127 159.643127,278.242737 
	C157.453278,278.187012 155.001236,279.191742 152.842072,276.828857 
	C154.026550,273.769135 156.579651,272.396484 159.449371,271.430298 
	C166.069366,269.201477 172.851196,268.981140 179.630127,270.333099 
	C188.508560,272.103790 196.574646,276.224121 204.955704,279.436920 
	C206.333054,279.964966 208.247574,281.069000 209.482010,279.141663 
	C210.418594,277.679352 209.629333,276.158386 208.640015,275.011353 
	C203.184296,268.685852 197.688782,262.157684 189.553375,259.337769 
	C168.979950,252.206482 150.949265,256.564209 135.243576,272.739899 
M218.519882,151.007904 
	C203.809708,166.004074 197.517654,183.961197 202.569427,204.399643 
	C206.248428,219.284088 218.003052,230.238464 225.157181,243.536926 
	C226.256561,245.580490 228.207855,244.662506 228.508728,242.438797 
	C228.748367,240.667511 228.455856,238.802658 228.249817,236.996429 
	C227.450043,229.985153 224.949860,223.454651 222.342789,216.981171 
	C218.410492,207.217117 217.721130,197.410233 221.057739,187.304062 
	C222.562012,182.747803 223.547287,178.014587 224.644669,173.332748 
	C225.018951,171.735947 224.778015,169.590195 226.873657,169.415314 
	C229.106262,169.229004 229.013290,171.439590 229.478821,172.990204 
	C231.563187,179.932968 228.650009,186.467117 227.736313,193.127945 
	C226.558762,201.712280 227.777069,209.673889 232.162491,217.127823 
	C232.988571,218.531952 233.887756,220.337799 235.868378,219.861603 
	C237.677673,219.426575 238.107864,217.539398 238.464172,215.913574 
	C238.674805,214.952469 238.639969,213.928116 238.641449,212.932098 
	C238.653870,204.611099 239.061874,196.264709 238.553040,187.974930 
	C237.783676,175.440292 234.856293,163.352768 228.760880,152.224655 
	C225.623367,146.496674 223.755676,146.224930 218.519882,151.007904 
M275.806458,162.669647 
	C272.600128,157.335861 268.385437,152.863297 263.898102,148.608276 
	C261.531799,146.364487 259.557312,146.426224 257.898254,149.338287 
	C256.745300,151.362015 255.504822,153.351654 254.541077,155.464905 
	C245.681702,174.891159 245.677963,195.518951 246.395294,216.236618 
	C246.451920,217.871933 247.202484,219.236069 248.719833,219.788177 
	C250.605194,220.474213 251.396729,218.848282 252.133881,217.596771 
	C256.671295,209.893219 258.548126,201.671158 257.222015,192.713242 
	C256.234772,186.044449 253.635345,179.448074 255.869644,172.559708 
	C256.279175,171.297119 256.703979,169.864700 258.310577,169.736938 
	C260.245972,169.583038 260.100159,171.180786 260.411560,172.465775 
	C261.623322,177.466415 262.706207,182.513077 264.232727,187.419525 
	C267.389130,197.564682 266.553925,207.386429 262.749481,217.178635 
	C260.824799,222.132538 259.029877,227.178116 257.737549,232.323227 
	C256.725128,236.353867 255.189636,240.571548 257.093109,244.845703 
	C259.049042,244.910629 259.555573,243.556610 260.243073,242.477081 
	C266.056793,233.348480 271.938110,224.261230 277.619324,215.050690 
	C279.876617,211.391144 281.974945,207.642151 282.757507,203.230698 
	C285.262115,189.112198 283.640564,175.738419 275.806458,162.669647 
M445.281189,248.801239 
	C446.736145,246.500671 450.297577,244.692978 446.778595,241.315353 
	C436.560669,231.507828 424.551605,224.453461 411.809174,218.555420 
	C409.195618,217.345688 406.831970,217.987381 405.857697,221.085373 
	C402.730896,231.027893 397.624207,239.971588 391.884949,248.568924 
	C390.044647,251.325714 390.521912,253.304855 392.671326,255.578857 
	C397.046814,260.208008 400.791779,265.402679 402.893890,271.416779 
	C404.561798,276.188690 407.093597,275.991943 410.869202,274.285492 
	C423.967743,268.365417 435.144409,259.879730 445.281189,248.801239 
M227.785385,82.637688 
	C231.790482,85.608543 235.837128,88.525597 239.783035,91.573112 
	C241.735504,93.081032 243.330368,93.492279 245.462372,91.677795 
	C252.708923,85.510498 260.754608,80.526772 269.120880,76.005669 
	C274.276306,73.219681 274.507721,72.105469 271.150391,67.091148 
	C264.154236,56.642124 255.609421,47.629051 245.592331,39.996082 
	C243.433243,38.350857 241.539215,37.993328 239.336517,39.733315 
	C229.209274,47.733162 220.410263,56.968861 213.366776,67.804314 
	C211.277939,71.017723 211.797684,73.664055 215.487152,75.573967 
	C219.467804,77.634621 223.289307,80.002731 227.785385,82.637688 
M49.385445,232.922150 
	C46.257011,235.388550 43.166714,237.905380 39.989662,240.307465 
	C36.672016,242.815842 36.295036,245.183502 39.302898,248.461212 
	C48.978748,259.005066 60.180298,267.447388 73.045319,273.649933 
	C78.113617,276.093475 80.222733,275.300720 82.532410,270.234161 
	C84.897697,265.045593 87.844368,260.235718 91.620300,256.013519 
	C94.191772,253.138077 94.179237,250.489838 92.128426,247.501724 
	C86.841438,239.798340 82.680786,231.512772 79.089851,222.892776 
	C77.189980,218.332138 75.016769,217.789810 70.385727,220.077591 
	C63.218540,223.618271 56.475155,227.866959 49.385445,232.922150 
M399.641174,113.777847 
	C384.458374,112.423218 369.501099,114.169777 354.603119,116.947090 
	C350.029633,117.799683 350.009552,119.976875 351.768829,123.645508 
	C356.165466,132.814026 359.808350,142.317337 360.220154,152.605042 
	C360.397156,157.026123 362.413666,158.599365 366.322906,158.585938 
	C372.683411,158.564087 378.914032,159.576752 384.999359,161.222290 
	C388.226593,162.094955 389.565369,160.952957 390.584290,158.176102 
	C393.906799,149.121536 396.968750,139.989319 398.666016,130.474762 
	C399.616974,125.143799 401.660828,119.894173 399.641174,113.777847 
M314.798584,170.248291 
	C317.905884,168.256912 317.919891,165.572189 316.846283,162.388641 
	C315.150757,157.360916 314.944580,152.261459 317.256897,147.327606 
	C318.087891,145.554474 319.022949,143.262650 321.446320,143.774963 
	C323.677795,144.246719 324.177979,146.553665 324.275696,148.567627 
	C324.428772,151.720322 324.285156,154.886169 324.338165,158.045258 
	C324.427490,163.370346 326.115082,164.627121 331.164612,162.930878 
	C336.833771,161.026505 342.450287,159.031021 348.473114,158.434708 
	C351.131409,158.171524 353.096527,157.095795 352.925903,153.675003 
	C352.376770,142.663818 348.895721,132.537949 344.100769,122.764259 
	C343.053162,120.628922 341.495270,120.012123 339.181244,120.783028 
	C325.388489,125.377922 312.958557,131.997925 303.425720,143.416473 
	C294.996521,153.513046 294.908752,165.411179 295.679474,177.442169 
	C295.906219,180.981491 298.274963,182.176651 301.621643,179.647141 
	C305.731964,176.540421 310.011841,173.658051 314.798584,170.248291 
M108.348114,159.606903 
	C111.315331,159.285568 114.275536,158.837952 117.251419,158.672836 
	C121.586594,158.432312 124.329971,156.996368 124.913368,152.039581 
	C126.104233,141.921463 128.920807,132.215515 133.321732,122.957153 
	C135.465515,118.447182 134.668427,117.410866 129.452469,116.415489 
	C116.634071,113.969330 103.669716,113.733063 90.686798,113.990807 
	C85.368706,114.096390 83.513557,116.452942 84.610115,121.688164 
	C86.719833,131.760437 88.671791,141.869293 92.187943,151.601318 
	C95.895454,161.862961 95.793549,161.898590 106.478745,159.724487 
	C106.802292,159.658661 107.141823,159.671417 108.348114,159.606903 
M169.339874,157.326050 
	C165.352951,166.605667 169.946716,171.769638 177.903107,175.460129 
	C179.533203,176.216248 180.837006,177.646622 182.388718,178.608994 
	C184.003860,179.610703 185.344360,181.418701 188.464493,180.562363 
	C190.438492,170.180176 190.509644,159.554169 185.303299,149.945450 
	C176.781555,134.217896 161.993179,126.281738 145.729507,120.671837 
	C143.770569,119.996132 142.095535,120.394981 141.138138,122.440186 
	C136.673584,131.977493 133.328140,141.850311 132.349518,152.404114 
	C132.010864,156.056274 133.950943,158.124924 137.430115,158.540146 
	C142.743973,159.174332 147.830872,160.610107 152.916031,162.196793 
	C158.882782,164.058487 160.892807,162.398987 160.720093,156.063675 
	C160.647903,153.416687 160.039856,150.794067 160.608871,148.116852 
	C160.999649,146.278351 161.273361,144.209625 163.363205,143.806137 
	C165.778748,143.339767 166.824188,145.425873 167.718384,147.205643 
	C169.169815,150.094452 169.573502,153.215912 169.339874,157.326050 
M369.740021,240.540802 
	C372.869202,242.068466 376.058350,243.486923 379.106537,245.162003 
	C381.156158,246.288315 382.739471,246.438141 384.275665,244.390823 
	C389.852631,236.958267 395.880127,229.832275 399.226501,220.963501 
	C401.396393,215.212738 400.877960,213.672501 394.770599,212.055450 
	C388.378052,210.362885 381.818848,209.309555 375.388062,207.747879 
	C372.034973,206.933578 369.714294,207.835892 367.577759,210.492355 
	C361.941650,217.499969 355.332916,223.581223 348.737579,229.662720 
	C347.436401,230.862534 345.652618,231.739197 345.837646,234.607147 
	C353.389069,236.704269 361.602997,237.001038 369.740021,240.540802 
M101.686745,209.342865 
	C97.663849,210.390991 93.601418,211.309174 89.627533,212.518372 
	C83.978615,214.237274 83.292191,215.864502 85.352150,221.287476 
	C88.672424,230.028305 94.575447,237.044083 100.423317,244.112274 
	C102.227386,246.292801 104.244682,245.860443 106.228264,244.696045 
	C115.007042,239.542740 124.612000,237.045258 134.587402,235.691391 
	C136.064713,235.490891 137.786285,235.550690 138.406631,233.874374 
	C139.128036,231.924973 137.518036,230.845978 136.357788,229.696381 
	C131.269699,224.655014 125.479897,220.144226 121.234642,214.475006 
	C115.993469,207.475784 110.019714,206.453445 101.686745,209.342865 
M141.489914,223.994324 
	C152.579620,232.727386 164.994553,238.998611 178.236877,243.713486 
	C179.891464,244.302582 181.880997,245.591858 183.289474,243.769012 
	C184.631775,242.031784 183.119476,240.280090 182.203537,238.755447 
	C177.492126,230.912949 172.912170,223.000183 169.204285,214.622269 
	C167.890610,211.654068 165.791519,209.994354 162.584091,209.215424 
	C151.837082,206.605515 140.923706,206.202118 129.950653,206.327988 
	C128.577667,206.343735 127.217422,206.514374 126.595367,207.965088 
	C125.882591,209.627380 126.866463,210.824402 127.915062,211.945114 
	C131.903503,216.207718 136.343048,219.964813 141.489914,223.994324 
M347.340332,220.835297 
	C351.554596,216.781113 356.572327,213.462112 359.847839,208.196457 
	C358.728485,207.410492 358.247253,206.911728 357.662354,206.701797 
	C356.895386,206.426514 356.048828,206.266541 355.232727,206.250580 
	C344.239288,206.035431 333.306793,206.531448 322.535645,209.015045 
	C319.831177,209.638626 317.448456,210.582077 316.209686,213.312225 
	C312.080536,222.412674 307.329834,231.184814 302.271362,239.798157 
	C301.535156,241.051804 300.558746,242.571320 301.781036,243.944305 
	C303.007233,245.321701 304.543030,244.446594 305.937286,243.917145 
	C320.642059,238.333298 334.599640,231.400955 347.340332,220.835297 
M207.004379,112.455452 
	C210.524872,115.513588 214.083786,118.528969 217.551727,121.645576 
	C219.695328,123.572021 221.370407,123.450943 222.626251,120.789780 
	C225.636780,114.410339 229.688492,108.729233 234.237289,103.381920 
	C236.547455,100.666222 236.056122,98.357582 233.552200,96.022484 
	C227.040558,89.949867 219.629776,85.202614 211.829437,81.016411 
	C208.541061,79.251633 205.993408,80.130630 204.514008,83.534714 
	C203.055130,86.891563 201.658203,90.286308 200.455322,93.741455 
	C196.610840,104.784088 196.650528,104.797844 206.056061,111.693146 
	C206.190369,111.791611 206.319504,111.897118 207.004379,112.455452 
M200.086365,249.412872 
	C213.151413,261.184174 222.315369,275.927734 230.563293,291.376923 
	C232.853546,289.709167 232.653839,288.344818 232.372955,287.054047 
	C231.492630,283.008728 230.689682,278.937347 229.584122,274.951691 
	C222.795654,250.478348 209.504272,230.981827 186.461426,219.032532 
	C184.906296,218.226074 183.294815,216.642975 181.489365,218.299377 
	C179.519257,220.106827 180.863770,222.077194 181.798920,223.742401 
	C186.853500,232.742996 192.193954,241.556931 200.086365,249.412872 
M254.441711,277.921539 
	C253.958893,281.986908 251.787552,285.934662 253.014923,290.416077 
	C256.060394,289.546722 256.554504,287.213348 257.527985,285.413208 
	C263.805206,273.805237 270.940765,262.840881 280.615753,253.712402 
	C289.414978,245.410233 296.223572,235.618851 301.955475,225.035126 
	C302.951843,223.195404 304.809265,221.173492 302.928131,219.154114 
	C300.875153,216.950226 298.596466,218.599091 296.608826,219.749695 
	C282.053375,228.175766 270.052185,238.975113 263.184570,254.818924 
	C260.008209,262.147003 256.997223,269.508087 254.441711,277.921539 
M260.453522,88.970779 
	C257.491791,91.384041 254.460312,93.717781 251.589401,96.234650 
	C249.103561,98.413940 248.621643,100.786621 251.084381,103.539383 
	C255.309525,108.262115 258.820099,113.478546 261.580353,119.227180 
	C263.219513,122.640907 265.777405,123.325806 268.741699,120.529984 
	C273.588074,115.959023 278.783447,111.809868 284.268799,108.049278 
	C286.561310,106.477631 287.178375,104.447807 286.595428,102.025703 
	C285.079895,95.728729 283.188324,89.532410 280.474762,83.639618 
	C279.064453,80.577034 276.751953,79.712990 273.517761,81.288666 
	C269.170929,83.406441 265.032135,85.847176 260.453522,88.970779 
M251.127274,145.680405 
	C253.313217,141.837051 256.488800,138.420166 255.612427,133.383713 
	C254.109970,124.749084 251.232849,116.668633 246.272125,109.417213 
	C243.605072,105.518623 241.805511,105.482559 239.188675,109.450653 
	C234.846115,116.035538 231.720078,123.237793 230.517746,131.034912 
	C230.086288,133.832977 228.837341,136.894714 230.472778,139.808014 
	C233.484070,145.172195 236.427246,150.576416 239.539536,155.881393 
	C241.360046,158.984497 243.519211,159.340942 245.475540,155.933426 
	C247.296402,152.761902 249.002167,149.524277 251.127274,145.680405 
M130.695435,188.764053 
	C128.418152,183.387100 127.010460,177.731888 125.837677,172.056396 
	C124.961670,167.817154 122.514786,166.107544 118.541389,166.171295 
	C114.066872,166.243103 109.593811,166.244766 105.160904,167.230835 
	C100.477036,168.272720 99.263756,170.156097 101.337898,174.598160 
	C103.940430,180.171829 107.354980,185.306671 110.420197,190.628616 
	C113.882843,196.640610 117.794083,199.656662 125.268440,197.916550 
	C131.630539,196.435349 132.574020,196.021988 130.695435,188.764053 
M383.459778,167.638474 
	C377.874390,166.648270 372.237579,166.393890 366.578064,166.113159 
	C362.112396,165.891632 360.119202,167.808884 359.501190,171.881104 
	C358.549561,178.151749 356.712189,184.183578 354.719788,190.191177 
	C352.708313,196.256332 353.548279,197.292557 360.079803,197.767654 
	C361.736053,197.888138 363.394287,198.122787 365.022949,198.448288 
	C367.589874,198.961349 369.577393,198.261597 371.091431,196.074341 
	C376.221039,188.664108 380.840149,180.955032 384.622375,172.771133 
	C385.342255,171.213501 386.481293,169.336975 383.459778,167.638474 
M332.297516,249.716782 
	C344.159119,253.853485 353.675842,260.988281 360.364807,271.717285 
	C362.712860,275.483521 364.701935,274.394928 366.621796,271.339722 
	C369.451202,266.837097 372.200104,262.279388 375.171021,257.871704 
	C377.229187,254.818192 376.864563,252.850479 373.407745,251.254608 
	C360.581482,245.333160 347.122314,244.878265 333.423981,246.451126 
	C331.901123,246.625977 330.323669,247.293396 332.297516,249.716782 
M217.790985,134.885208 
	C213.768921,126.946053 207.077927,121.450157 200.226212,116.228127 
	C196.951279,113.732132 195.579895,115.981003 195.178009,119.298805 
	C193.705185,131.457672 195.625946,143.410294 197.253876,155.384186 
	C197.434601,156.713593 197.556458,158.169052 199.230148,158.452133 
	C200.846390,158.725494 201.585205,157.430817 202.274094,156.317978 
	C205.975815,150.338120 210.669586,145.203003 215.746262,140.393616 
	C217.130051,139.082657 218.196518,137.676865 217.790985,134.885208 
M122.183311,273.569153 
	C123.537743,273.103973 124.256546,271.982208 124.992653,270.869415 
	C131.111481,261.619293 138.999313,254.549850 149.623993,250.825775 
	C150.997543,250.344345 152.556503,249.899933 152.389481,247.477432 
	C152.231049,247.369034 151.849411,246.891953 151.422394,246.847092 
	C137.796906,245.416183 124.297615,245.182693 111.492638,251.246521 
	C108.143257,252.832626 107.778931,255.061157 109.760880,258.051666 
	C112.418251,262.061249 114.932632,266.165344 117.546631,270.204132 
	C118.525314,271.716278 119.362289,273.444427 122.183311,273.569153 
M276.123383,147.415680 
	C278.098114,150.087616 280.121490,152.725494 282.026093,155.446503 
	C282.918549,156.721512 283.745453,158.029617 285.524567,157.712173 
	C287.401672,157.377243 287.432343,155.772354 287.735077,154.266968 
	C290.046204,142.773956 289.890656,131.153412 289.637909,119.525208 
	C289.605011,118.011452 289.548889,116.387848 288.007874,115.601082 
	C286.191010,114.673492 284.845215,115.968338 283.543640,116.972237 
	C278.255798,121.050812 273.512848,125.727943 269.244446,130.831436 
	C265.234100,135.626373 265.463348,136.613449 270.066559,141.186401 
	C271.953217,143.060638 273.786285,144.988831 276.123383,147.415680 
M344.190765,186.694168 
	C347.549042,182.472794 349.726715,177.644424 351.315155,172.543671 
	C352.358276,169.194077 351.721191,166.917007 347.481903,167.270004 
	C341.153137,167.796951 335.102692,169.470047 329.180450,171.655960 
	C327.321014,172.342285 326.236664,173.664795 326.244354,175.808716 
	C326.268860,182.639435 325.285522,189.320206 323.564880,195.946686 
	C322.532135,199.924118 324.291931,201.328888 328.142395,199.889664 
	C334.729675,197.427444 339.848969,193.069366 344.190765,186.694168 
M159.657761,185.539398 
	C159.347183,182.229492 158.994476,178.922760 158.743713,175.608322 
	C158.617172,173.935822 157.882751,172.801636 156.355667,172.134018 
	C150.691101,169.657516 144.835205,167.787155 138.650223,167.365509 
	C134.171021,167.060150 132.689224,169.248276 134.159790,173.617447 
	C136.365234,180.170044 139.805237,185.990326 144.557877,191.051346 
	C147.893021,194.602859 151.332779,197.951523 156.159515,199.391159 
	C160.433746,200.666016 162.259384,199.071106 161.455536,194.689301 
	C160.947327,191.918991 160.277863,189.178268 159.657761,185.539398 
M173.664200,201.820145 
	C177.858597,208.003296 185.130554,208.724625 191.232132,211.354324 
	C193.561615,212.358337 194.128693,209.664078 193.218109,207.751755 
	C188.069336,196.939072 181.151321,187.465637 171.649078,180.037170 
	C170.481262,179.124237 169.036041,178.246490 167.543915,179.340912 
	C166.101120,180.399170 166.525711,181.868301 166.834976,183.420181 
	C168.082779,189.681747 170.627670,195.443771 173.664200,201.820145 
M315.613983,179.315826 
	C303.491791,186.577408 296.597137,197.797409 291.432617,210.534836 
	C296.754395,210.591019 300.866455,207.885330 305.427185,206.725845 
	C308.373077,205.976929 310.278717,204.136047 311.685547,201.467102 
	C314.572449,195.990356 316.659576,190.244476 318.156067,184.252411 
	C318.688995,182.118439 318.822418,180.278427 315.613983,179.315826 
M386.675842,259.988190 
	C383.817139,258.588867 382.708435,260.871674 381.668549,262.628082 
	C379.054718,267.042999 376.618958,271.565979 374.208527,276.097107 
	C373.459595,277.504974 372.484711,278.993469 373.620422,281.153687 
	C381.417786,282.633881 389.102295,280.963959 396.729706,278.818634 
	C399.314728,278.091614 398.827698,276.208344 398.007294,274.432068 
	C395.472717,268.944336 392.015961,264.145325 386.675842,259.988190 
M86.416946,276.461426 
	C86.468102,277.791016 87.244576,278.799408 88.375237,279.111542 
	C95.129555,280.976166 102.005104,282.253754 109.025909,281.378601 
	C112.008270,281.006805 112.173584,278.742065 110.917191,276.460632 
	C108.509003,272.087677 106.020149,267.757965 103.498688,263.448975 
	C101.044304,259.254578 98.708328,258.930908 95.276237,262.540375 
	C91.593651,266.413300 88.433075,270.695526 86.416946,276.461426 
z"/>
<path fill="#000000" opacity="1.000000" stroke="none" 
	d="
M270.000000,465.000000 
	C251.979111,465.000000 233.958206,465.000000 215.520691,464.662109 
	C228.780792,450.994415 235.278763,433.520020 241.731186,416.241882 
	C244.170303,417.042175 244.581619,418.440887 244.947540,419.641968 
	C250.095001,436.537811 257.846100,451.980621 270.000000,465.000000 
z"/>
</svg>